<mxfile host="Electron" agent="Mozilla/5.0 (Windows NT 10.0; Win64; x64) AppleWebKit/537.36 (KHTML, like Gecko) draw.io/24.7.17 Chrome/128.0.6613.36 Electron/32.0.1 Safari/537.36" version="24.7.17">
  <diagram name="Страница — 1" id="dGyKo30YHlpizkumSqCY">
    <mxGraphModel dx="1418" dy="1655" grid="1" gridSize="10" guides="1" tooltips="1" connect="1" arrows="1" fold="1" page="1" pageScale="1" pageWidth="1169" pageHeight="827" math="0" shadow="0">
      <root>
        <mxCell id="0" />
        <mxCell id="1" parent="0" />
        <mxCell id="dYEdAIXaL3cLcxX8QMDE-24" value="" style="shape=note;whiteSpace=wrap;html=1;backgroundOutline=1;darkOpacity=0.05;" parent="1" vertex="1">
          <mxGeometry x="985" y="-200" width="410" height="210" as="geometry" />
        </mxCell>
        <mxCell id="ZdthaMtyNPpBsi2oZ3e5-52" value="" style="rounded=1;whiteSpace=wrap;html=1;shadow=1;arcSize=13;labelBackgroundColor=none;movable=0;resizable=0;rotatable=0;deletable=0;editable=0;locked=1;connectable=0;" parent="1" vertex="1">
          <mxGeometry x="320" y="100" width="200" height="360" as="geometry" />
        </mxCell>
        <mxCell id="ZdthaMtyNPpBsi2oZ3e5-1" value="" style="rounded=1;whiteSpace=wrap;html=1;shadow=1;arcSize=13;labelBackgroundColor=none;movable=0;resizable=0;rotatable=0;deletable=0;editable=0;locked=1;connectable=0;" parent="1" vertex="1">
          <mxGeometry x="50" y="100" width="200" height="360" as="geometry" />
        </mxCell>
        <mxCell id="ZdthaMtyNPpBsi2oZ3e5-4" value="" style="endArrow=none;html=1;rounded=0;entryX=1.005;entryY=0.942;entryDx=0;entryDy=0;entryPerimeter=0;exitX=0;exitY=0.944;exitDx=0;exitDy=0;exitPerimeter=0;labelBackgroundColor=none;fontColor=default;" parent="1" source="ZdthaMtyNPpBsi2oZ3e5-1" target="ZdthaMtyNPpBsi2oZ3e5-1" edge="1">
          <mxGeometry width="50" height="50" relative="1" as="geometry">
            <mxPoint x="90" y="450" as="sourcePoint" />
            <mxPoint x="140" y="400" as="targetPoint" />
            <Array as="points" />
          </mxGeometry>
        </mxCell>
        <mxCell id="ZdthaMtyNPpBsi2oZ3e5-5" value="" style="endArrow=none;html=1;rounded=0;entryX=0.995;entryY=0.833;entryDx=0;entryDy=0;entryPerimeter=0;labelBackgroundColor=none;fontColor=default;" parent="1" target="ZdthaMtyNPpBsi2oZ3e5-1" edge="1">
          <mxGeometry width="50" height="50" relative="1" as="geometry">
            <mxPoint x="51" y="400" as="sourcePoint" />
            <mxPoint x="140" y="380" as="targetPoint" />
          </mxGeometry>
        </mxCell>
        <mxCell id="ZdthaMtyNPpBsi2oZ3e5-7" style="edgeStyle=orthogonalEdgeStyle;rounded=0;orthogonalLoop=1;jettySize=auto;html=1;exitX=0.1;exitY=0.5;exitDx=0;exitDy=0;exitPerimeter=0;entryX=0.1;entryY=0.5;entryDx=0;entryDy=0;entryPerimeter=0;labelBackgroundColor=none;fontColor=default;" parent="1" edge="1">
          <mxGeometry relative="1" as="geometry">
            <mxPoint x="421" y="425" as="targetPoint" />
            <mxPoint x="421" y="425" as="sourcePoint" />
          </mxGeometry>
        </mxCell>
        <mxCell id="ZdthaMtyNPpBsi2oZ3e5-12" style="edgeStyle=orthogonalEdgeStyle;rounded=0;orthogonalLoop=1;jettySize=auto;html=1;exitX=0.5;exitY=0.115;exitDx=0;exitDy=0;exitPerimeter=0;entryX=0.5;entryY=0.115;entryDx=0;entryDy=0;entryPerimeter=0;labelBackgroundColor=none;fontColor=default;" parent="1" source="ZdthaMtyNPpBsi2oZ3e5-11" target="ZdthaMtyNPpBsi2oZ3e5-11" edge="1">
          <mxGeometry relative="1" as="geometry">
            <mxPoint x="460" y="390" as="targetPoint" />
          </mxGeometry>
        </mxCell>
        <mxCell id="ZdthaMtyNPpBsi2oZ3e5-11" value="" style="verticalLabelPosition=bottom;verticalAlign=top;html=1;shape=mxgraph.basic.heart;shadow=1;labelBackgroundColor=none;" parent="1" vertex="1">
          <mxGeometry x="100" y="410" width="20" height="20" as="geometry" />
        </mxCell>
        <mxCell id="ZdthaMtyNPpBsi2oZ3e5-13" value="" style="shape=actor;whiteSpace=wrap;html=1;shadow=1;labelBackgroundColor=none;" parent="1" vertex="1">
          <mxGeometry x="180" y="410" width="20" height="20" as="geometry" />
        </mxCell>
        <mxCell id="ZdthaMtyNPpBsi2oZ3e5-15" value="" style="html=1;shape=mxgraph.basic.isocube;isoAngle=15;shadow=1;labelBackgroundColor=none;" parent="1" vertex="1">
          <mxGeometry x="220" y="410" width="20" height="20" as="geometry" />
        </mxCell>
        <mxCell id="ZdthaMtyNPpBsi2oZ3e5-16" value="" style="verticalLabelPosition=bottom;verticalAlign=top;html=1;shape=mxgraph.flowchart.or;shadow=1;labelBackgroundColor=none;" parent="1" vertex="1">
          <mxGeometry x="139.5" y="410" width="21" height="20" as="geometry" />
        </mxCell>
        <mxCell id="ZdthaMtyNPpBsi2oZ3e5-17" value="" style="ellipse;whiteSpace=wrap;html=1;aspect=fixed;strokeWidth=2;perimeterSpacing=1;shadow=1;labelBackgroundColor=none;fillColor=#d5e8d4;strokeColor=#82b366;gradientColor=#97d077;" parent="1" vertex="1">
          <mxGeometry x="60" y="410" width="10" height="10" as="geometry" />
        </mxCell>
        <mxCell id="ZdthaMtyNPpBsi2oZ3e5-20" value="" style="endArrow=none;html=1;rounded=0;shadow=1;endSize=7;startSize=7;jumpSize=7;labelBackgroundColor=none;fontColor=default;fillColor=#60a917;strokeColor=#2D7600;" parent="1" edge="1">
          <mxGeometry width="50" height="50" relative="1" as="geometry">
            <mxPoint x="70" y="420" as="sourcePoint" />
            <mxPoint x="80" y="430" as="targetPoint" />
          </mxGeometry>
        </mxCell>
        <mxCell id="ZdthaMtyNPpBsi2oZ3e5-24" value="" style="endArrow=none;html=1;rounded=0;exitX=-0.005;exitY=0.053;exitDx=0;exitDy=0;exitPerimeter=0;labelBackgroundColor=none;fontColor=default;" parent="1" source="ZdthaMtyNPpBsi2oZ3e5-1" edge="1">
          <mxGeometry width="50" height="50" relative="1" as="geometry">
            <mxPoint x="89.5" y="180" as="sourcePoint" />
            <mxPoint x="246" y="119" as="targetPoint" />
          </mxGeometry>
        </mxCell>
        <mxCell id="ZdthaMtyNPpBsi2oZ3e5-25" value="" style="rounded=0;whiteSpace=wrap;html=1;fillColor=#cdeb8b;strokeColor=#36393d;" parent="1" vertex="1">
          <mxGeometry x="50" y="120" width="200" height="50" as="geometry" />
        </mxCell>
        <mxCell id="ZdthaMtyNPpBsi2oZ3e5-28" value="&lt;h2&gt;Уход за лицом&lt;/h2&gt;" style="text;strokeColor=none;align=center;fillColor=none;html=1;verticalAlign=middle;whiteSpace=wrap;rounded=0;" parent="1" vertex="1">
          <mxGeometry x="50" y="140" width="150" height="30" as="geometry" />
        </mxCell>
        <mxCell id="ZdthaMtyNPpBsi2oZ3e5-29" value="" style="shape=partialRectangle;whiteSpace=wrap;html=1;left=0;right=0;fillColor=none;" parent="1" vertex="1">
          <mxGeometry x="60" y="180" width="20" height="10" as="geometry" />
        </mxCell>
        <mxCell id="ZdthaMtyNPpBsi2oZ3e5-30" value="" style="shape=waypoint;sketch=0;fillStyle=solid;size=6;pointerEvents=1;points=[];fillColor=none;resizable=0;rotatable=0;perimeter=centerPerimeter;snapToPoint=1;" parent="1" vertex="1">
          <mxGeometry x="70" y="170" width="20" height="20" as="geometry" />
        </mxCell>
        <mxCell id="ZdthaMtyNPpBsi2oZ3e5-31" value="" style="shape=waypoint;sketch=0;fillStyle=solid;size=6;pointerEvents=1;points=[];fillColor=none;resizable=0;rotatable=0;perimeter=centerPerimeter;snapToPoint=1;" parent="1" vertex="1">
          <mxGeometry x="55" y="180" width="20" height="20" as="geometry" />
        </mxCell>
        <mxCell id="ZdthaMtyNPpBsi2oZ3e5-36" value="7 942 продукта" style="text;strokeColor=none;align=center;fillColor=none;html=1;verticalAlign=middle;whiteSpace=wrap;rounded=0;fontFamily=Helvetica;fontSize=12;fontColor=default;labelBackgroundColor=none;" parent="1" vertex="1">
          <mxGeometry x="110" y="170" width="90" height="30" as="geometry" />
        </mxCell>
        <mxCell id="ZdthaMtyNPpBsi2oZ3e5-37" value="Лосьон" style="label;whiteSpace=wrap;html=1;align=center;verticalAlign=bottom;spacingLeft=0;spacingBottom=4;imageAlign=center;imageVerticalAlign=top;image=img/clipart/Gear_128x128.png;rounded=1;shadow=1;strokeColor=default;arcSize=13;fontFamily=Helvetica;fontSize=12;fontColor=default;labelBackgroundColor=none;fillColor=default;" parent="1" vertex="1">
          <mxGeometry x="59.5" y="220" width="80" height="70" as="geometry" />
        </mxCell>
        <mxCell id="ZdthaMtyNPpBsi2oZ3e5-38" value="Крем" style="label;whiteSpace=wrap;html=1;align=center;verticalAlign=bottom;spacingLeft=0;spacingBottom=4;imageAlign=center;imageVerticalAlign=top;image=img/clipart/Gear_128x128.png;rounded=1;shadow=1;strokeColor=default;arcSize=13;fontFamily=Helvetica;fontSize=12;fontColor=default;labelBackgroundColor=none;fillColor=default;" parent="1" vertex="1">
          <mxGeometry x="160" y="220" width="80" height="70" as="geometry" />
        </mxCell>
        <mxCell id="ZdthaMtyNPpBsi2oZ3e5-39" value="Тоник" style="label;whiteSpace=wrap;html=1;align=center;verticalAlign=bottom;spacingLeft=0;spacingBottom=4;imageAlign=center;imageVerticalAlign=top;image=img/clipart/Gear_128x128.png;rounded=1;shadow=1;strokeColor=default;arcSize=13;fontFamily=Helvetica;fontSize=12;fontColor=default;labelBackgroundColor=none;fillColor=default;" parent="1" vertex="1">
          <mxGeometry x="60" y="310" width="80" height="70" as="geometry" />
        </mxCell>
        <mxCell id="ZdthaMtyNPpBsi2oZ3e5-40" value="Маска" style="label;whiteSpace=wrap;html=1;align=center;verticalAlign=bottom;spacingLeft=0;spacingBottom=4;imageAlign=center;imageVerticalAlign=top;image=img/clipart/Gear_128x128.png;rounded=1;shadow=1;strokeColor=default;arcSize=13;fontFamily=Helvetica;fontSize=12;fontColor=default;labelBackgroundColor=none;fillColor=default;" parent="1" vertex="1">
          <mxGeometry x="160" y="310" width="80" height="70" as="geometry" />
        </mxCell>
        <mxCell id="ZdthaMtyNPpBsi2oZ3e5-42" value="" style="endArrow=none;html=1;rounded=0;entryX=1.005;entryY=0.942;entryDx=0;entryDy=0;entryPerimeter=0;exitX=0;exitY=0.944;exitDx=0;exitDy=0;exitPerimeter=0;labelBackgroundColor=none;fontColor=default;" parent="1" edge="1">
          <mxGeometry width="50" height="50" relative="1" as="geometry">
            <mxPoint x="320" y="441" as="sourcePoint" />
            <mxPoint x="521" y="440" as="targetPoint" />
            <Array as="points" />
          </mxGeometry>
        </mxCell>
        <mxCell id="ZdthaMtyNPpBsi2oZ3e5-51" value="" style="endArrow=none;html=1;rounded=0;entryX=0.995;entryY=0.833;entryDx=0;entryDy=0;entryPerimeter=0;labelBackgroundColor=none;fontColor=default;" parent="1" edge="1">
          <mxGeometry width="50" height="50" relative="1" as="geometry">
            <mxPoint x="320" y="120" as="sourcePoint" />
            <mxPoint x="518" y="120" as="targetPoint" />
          </mxGeometry>
        </mxCell>
        <mxCell id="ZdthaMtyNPpBsi2oZ3e5-54" value="&lt;font style=&quot;font-size: 12px;&quot;&gt;&lt;b&gt;&lt;font style=&quot;font-size: 12px;&quot;&gt;сортировать&lt;/font&gt;&lt;/b&gt; по популярности&lt;/font&gt;" style="text;strokeColor=none;align=center;fillColor=none;html=1;verticalAlign=middle;whiteSpace=wrap;rounded=0;fontFamily=Helvetica;fontSize=12;fontColor=default;labelBackgroundColor=none;" parent="1" vertex="1">
          <mxGeometry x="299" y="165" width="230" height="30" as="geometry" />
        </mxCell>
        <mxCell id="ZdthaMtyNPpBsi2oZ3e5-56" value="" style="endArrow=none;html=1;rounded=0;fontFamily=Helvetica;fontSize=12;fontColor=default;labelBackgroundColor=none;" parent="1" edge="1">
          <mxGeometry width="50" height="50" relative="1" as="geometry">
            <mxPoint x="500" y="170" as="sourcePoint" />
            <mxPoint x="500" y="190" as="targetPoint" />
            <Array as="points">
              <mxPoint x="510" y="180" />
            </Array>
          </mxGeometry>
        </mxCell>
        <mxCell id="ZdthaMtyNPpBsi2oZ3e5-57" value="" style="endArrow=none;html=1;rounded=0;fontFamily=Helvetica;fontSize=12;fontColor=default;labelBackgroundColor=none;strokeWidth=3;" parent="1" edge="1">
          <mxGeometry width="50" height="50" relative="1" as="geometry">
            <mxPoint x="483" y="249.5" as="sourcePoint" />
            <mxPoint x="344" y="249.5" as="targetPoint" />
          </mxGeometry>
        </mxCell>
        <mxCell id="ZdthaMtyNPpBsi2oZ3e5-58" value="" style="ellipse;whiteSpace=wrap;html=1;aspect=fixed;rounded=1;shadow=1;strokeColor=default;align=center;verticalAlign=middle;arcSize=13;fontFamily=Helvetica;fontSize=12;fontColor=default;labelBackgroundColor=none;fillColor=default;" parent="1" vertex="1">
          <mxGeometry x="330" y="240" width="20" height="20" as="geometry" />
        </mxCell>
        <mxCell id="ZdthaMtyNPpBsi2oZ3e5-59" value="" style="ellipse;whiteSpace=wrap;html=1;aspect=fixed;rounded=1;shadow=1;strokeColor=default;align=center;verticalAlign=middle;arcSize=13;fontFamily=Helvetica;fontSize=12;fontColor=default;labelBackgroundColor=none;fillColor=default;" parent="1" vertex="1">
          <mxGeometry x="480" y="240" width="20" height="20" as="geometry" />
        </mxCell>
        <mxCell id="ZdthaMtyNPpBsi2oZ3e5-60" value="от 15 р" style="text;strokeColor=none;align=center;fillColor=none;html=1;verticalAlign=middle;whiteSpace=wrap;rounded=0;fontFamily=Helvetica;fontSize=12;fontColor=default;labelBackgroundColor=none;" parent="1" vertex="1">
          <mxGeometry x="320" y="210" width="60" height="30" as="geometry" />
        </mxCell>
        <mxCell id="ZdthaMtyNPpBsi2oZ3e5-61" value="до 127 521 р" style="text;strokeColor=none;align=center;fillColor=none;html=1;verticalAlign=middle;whiteSpace=wrap;rounded=0;fontFamily=Helvetica;fontSize=12;fontColor=default;labelBackgroundColor=none;" parent="1" vertex="1">
          <mxGeometry x="440" y="210" width="80" height="30" as="geometry" />
        </mxCell>
        <mxCell id="ZdthaMtyNPpBsi2oZ3e5-62" value="бренд" style="text;strokeColor=none;align=center;fillColor=none;html=1;verticalAlign=middle;whiteSpace=wrap;rounded=0;fontFamily=Helvetica;fontSize=12;fontColor=default;labelBackgroundColor=none;" parent="1" vertex="1">
          <mxGeometry x="330" y="290" width="40" height="30" as="geometry" />
        </mxCell>
        <mxCell id="ZdthaMtyNPpBsi2oZ3e5-63" value="ингридиент" style="text;strokeColor=none;align=center;fillColor=none;html=1;verticalAlign=middle;whiteSpace=wrap;rounded=0;fontFamily=Helvetica;fontSize=12;fontColor=default;labelBackgroundColor=none;" parent="1" vertex="1">
          <mxGeometry x="334" y="320" width="60" height="30" as="geometry" />
        </mxCell>
        <mxCell id="ZdthaMtyNPpBsi2oZ3e5-64" value="тип продукта" style="text;strokeColor=none;align=center;fillColor=none;html=1;verticalAlign=middle;whiteSpace=wrap;rounded=0;fontFamily=Helvetica;fontSize=12;fontColor=default;labelBackgroundColor=none;" parent="1" vertex="1">
          <mxGeometry x="330" y="350" width="80" height="30" as="geometry" />
        </mxCell>
        <mxCell id="ZdthaMtyNPpBsi2oZ3e5-65" value="для кого" style="text;strokeColor=none;align=center;fillColor=none;html=1;verticalAlign=middle;whiteSpace=wrap;rounded=0;fontFamily=Helvetica;fontSize=12;fontColor=default;labelBackgroundColor=none;" parent="1" vertex="1">
          <mxGeometry x="330" y="380" width="50" height="30" as="geometry" />
        </mxCell>
        <mxCell id="ZdthaMtyNPpBsi2oZ3e5-66" value="" style="verticalLabelPosition=bottom;verticalAlign=top;html=1;shape=mxgraph.basic.patternFillRect;fillStyle=diag;step=5;fillStrokeWidth=0.2;fillStrokeColor=#dddddd;rounded=1;shadow=1;strokeColor=#36393d;align=center;arcSize=13;fontFamily=Helvetica;fontSize=12;labelBackgroundColor=none;fillColor=#eeeeee;" parent="1" vertex="1">
          <mxGeometry x="350" y="407.5" width="136" height="25" as="geometry" />
        </mxCell>
        <mxCell id="ZdthaMtyNPpBsi2oZ3e5-67" value="&lt;font style=&quot;font-size: 11px;&quot;&gt;&lt;b&gt;показать 7942 продукта&lt;/b&gt;&lt;/font&gt;" style="text;strokeColor=none;align=center;fillColor=none;html=1;verticalAlign=middle;whiteSpace=wrap;rounded=0;fontFamily=Helvetica;fontSize=12;fontColor=default;labelBackgroundColor=none;strokeWidth=1;" parent="1" vertex="1">
          <mxGeometry x="348" y="405" width="140" height="30" as="geometry" />
        </mxCell>
        <mxCell id="ZdthaMtyNPpBsi2oZ3e5-69" value="" style="endArrow=none;html=1;rounded=0;fontFamily=Helvetica;fontSize=12;fontColor=default;labelBackgroundColor=none;" parent="1" edge="1">
          <mxGeometry width="50" height="50" relative="1" as="geometry">
            <mxPoint x="500" y="355" as="sourcePoint" />
            <mxPoint x="500" y="375" as="targetPoint" />
            <Array as="points">
              <mxPoint x="510" y="365" />
            </Array>
          </mxGeometry>
        </mxCell>
        <mxCell id="ZdthaMtyNPpBsi2oZ3e5-70" value="" style="endArrow=none;html=1;rounded=0;fontFamily=Helvetica;fontSize=12;fontColor=default;labelBackgroundColor=none;" parent="1" edge="1">
          <mxGeometry width="50" height="50" relative="1" as="geometry">
            <mxPoint x="500" y="290" as="sourcePoint" />
            <mxPoint x="500" y="310" as="targetPoint" />
            <Array as="points">
              <mxPoint x="510" y="300" />
            </Array>
          </mxGeometry>
        </mxCell>
        <mxCell id="ZdthaMtyNPpBsi2oZ3e5-71" value="" style="endArrow=none;html=1;rounded=0;fontFamily=Helvetica;fontSize=12;fontColor=default;labelBackgroundColor=none;" parent="1" edge="1">
          <mxGeometry width="50" height="50" relative="1" as="geometry">
            <mxPoint x="500" y="320" as="sourcePoint" />
            <mxPoint x="500" y="340" as="targetPoint" />
            <Array as="points">
              <mxPoint x="510" y="330" />
            </Array>
          </mxGeometry>
        </mxCell>
        <mxCell id="ZdthaMtyNPpBsi2oZ3e5-72" value="" style="endArrow=none;html=1;rounded=0;fontFamily=Helvetica;fontSize=12;fontColor=default;labelBackgroundColor=none;" parent="1" edge="1">
          <mxGeometry width="50" height="50" relative="1" as="geometry">
            <mxPoint x="500" y="385" as="sourcePoint" />
            <mxPoint x="500" y="405" as="targetPoint" />
            <Array as="points">
              <mxPoint x="510" y="395" />
            </Array>
          </mxGeometry>
        </mxCell>
        <mxCell id="ZdthaMtyNPpBsi2oZ3e5-73" value="" style="rounded=1;whiteSpace=wrap;html=1;shadow=1;arcSize=13;labelBackgroundColor=none;movable=1;resizable=1;rotatable=1;deletable=1;editable=1;locked=0;connectable=1;" parent="1" vertex="1">
          <mxGeometry x="600" y="100" width="200" height="360" as="geometry" />
        </mxCell>
        <mxCell id="ZdthaMtyNPpBsi2oZ3e5-75" value="" style="endArrow=none;html=1;rounded=0;entryX=0.995;entryY=0.833;entryDx=0;entryDy=0;entryPerimeter=0;labelBackgroundColor=none;fontColor=default;" parent="1" edge="1">
          <mxGeometry width="50" height="50" relative="1" as="geometry">
            <mxPoint x="601" y="120" as="sourcePoint" />
            <mxPoint x="799" y="120" as="targetPoint" />
          </mxGeometry>
        </mxCell>
        <mxCell id="ZdthaMtyNPpBsi2oZ3e5-76" value="" style="endArrow=none;html=1;rounded=0;entryX=0.995;entryY=0.833;entryDx=0;entryDy=0;entryPerimeter=0;labelBackgroundColor=none;fontColor=default;" parent="1" edge="1">
          <mxGeometry width="50" height="50" relative="1" as="geometry">
            <mxPoint x="601" y="440" as="sourcePoint" />
            <mxPoint x="799" y="440" as="targetPoint" />
          </mxGeometry>
        </mxCell>
        <mxCell id="ZdthaMtyNPpBsi2oZ3e5-77" value="&lt;font style=&quot;font-size: 13px;&quot;&gt;&lt;b&gt;ингридиент&lt;/b&gt;&lt;/font&gt;" style="text;strokeColor=none;align=center;fillColor=none;html=1;verticalAlign=middle;whiteSpace=wrap;rounded=0;fontFamily=Helvetica;fontSize=12;fontColor=default;labelBackgroundColor=none;" parent="1" vertex="1">
          <mxGeometry x="670" y="120" width="60" height="30" as="geometry" />
        </mxCell>
        <mxCell id="ZdthaMtyNPpBsi2oZ3e5-78" value="" style="endArrow=none;html=1;rounded=0;fontFamily=Helvetica;fontSize=12;fontColor=default;labelBackgroundColor=none;" parent="1" edge="1">
          <mxGeometry width="50" height="50" relative="1" as="geometry">
            <mxPoint x="620" y="145" as="sourcePoint" />
            <mxPoint x="620" y="125" as="targetPoint" />
            <Array as="points">
              <mxPoint x="610" y="135" />
            </Array>
          </mxGeometry>
        </mxCell>
        <mxCell id="ZdthaMtyNPpBsi2oZ3e5-80" value="" style="endArrow=none;html=1;rounded=0;entryX=0.995;entryY=0.833;entryDx=0;entryDy=0;entryPerimeter=0;labelBackgroundColor=none;fontColor=default;opacity=20;" parent="1" edge="1">
          <mxGeometry width="50" height="50" relative="1" as="geometry">
            <mxPoint x="602" y="230" as="sourcePoint" />
            <mxPoint x="800" y="230" as="targetPoint" />
            <Array as="points">
              <mxPoint x="700" y="230" />
            </Array>
          </mxGeometry>
        </mxCell>
        <mxCell id="ZdthaMtyNPpBsi2oZ3e5-81" value="&lt;b&gt;&lt;font color=&quot;#c4c4c4&quot; style=&quot;font-size: 14px;&quot;&gt;найти&lt;/font&gt;&lt;/b&gt;" style="text;strokeColor=none;align=center;fillColor=none;html=1;verticalAlign=middle;whiteSpace=wrap;rounded=0;fontFamily=Helvetica;fontSize=12;fontColor=default;labelBackgroundColor=none;" parent="1" vertex="1">
          <mxGeometry x="600" y="200" width="60" height="30" as="geometry" />
        </mxCell>
        <mxCell id="ZdthaMtyNPpBsi2oZ3e5-227" value="" style="verticalLabelPosition=bottom;verticalAlign=top;html=1;shape=mxgraph.basic.patternFillRect;fillStyle=diag;step=5;fillStrokeWidth=0.2;fillStrokeColor=#dddddd;rounded=1;shadow=1;strokeColor=#36393d;align=center;arcSize=13;fontFamily=Helvetica;fontSize=12;labelBackgroundColor=none;fillColor=#eeeeee;" parent="1" vertex="1">
          <mxGeometry x="630" y="410" width="136" height="25" as="geometry" />
        </mxCell>
        <mxCell id="ZdthaMtyNPpBsi2oZ3e5-224" value="&lt;font style=&quot;font-size: 11px;&quot;&gt;&lt;b&gt;показать 562 продукта&lt;/b&gt;&lt;/font&gt;" style="text;strokeColor=none;align=center;fillColor=none;html=1;verticalAlign=middle;whiteSpace=wrap;rounded=0;fontFamily=Helvetica;fontSize=12;fontColor=default;labelBackgroundColor=none;strokeWidth=1;" parent="1" vertex="1">
          <mxGeometry x="628" y="407.5" width="140" height="30" as="geometry" />
        </mxCell>
        <mxCell id="wpBQhrVMxcvOTKbJPQ1--20" style="edgeStyle=orthogonalEdgeStyle;rounded=0;orthogonalLoop=1;jettySize=auto;html=1;exitX=0.05;exitY=0.986;exitDx=0;exitDy=0;entryX=0.5;entryY=0;entryDx=0;entryDy=0;exitPerimeter=0;" edge="1" parent="1" source="ZdthaMtyNPpBsi2oZ3e5-232" target="wpBQhrVMxcvOTKbJPQ1--1">
          <mxGeometry relative="1" as="geometry" />
        </mxCell>
        <mxCell id="ZdthaMtyNPpBsi2oZ3e5-232" value="" style="rounded=1;whiteSpace=wrap;html=1;shadow=1;arcSize=13;labelBackgroundColor=none;movable=1;resizable=1;rotatable=1;deletable=1;editable=1;locked=0;connectable=1;" parent="1" vertex="1">
          <mxGeometry x="865" y="100" width="200" height="360" as="geometry" />
        </mxCell>
        <mxCell id="ZdthaMtyNPpBsi2oZ3e5-233" value="" style="endArrow=none;html=1;rounded=0;entryX=0.995;entryY=0.833;entryDx=0;entryDy=0;entryPerimeter=0;labelBackgroundColor=none;fontColor=default;" parent="1" edge="1">
          <mxGeometry width="50" height="50" relative="1" as="geometry">
            <mxPoint x="866" y="119" as="sourcePoint" />
            <mxPoint x="1064" y="119" as="targetPoint" />
          </mxGeometry>
        </mxCell>
        <mxCell id="ZdthaMtyNPpBsi2oZ3e5-234" value="" style="endArrow=none;html=1;rounded=0;entryX=0.995;entryY=0.833;entryDx=0;entryDy=0;entryPerimeter=0;labelBackgroundColor=none;fontColor=default;" parent="1" edge="1">
          <mxGeometry width="50" height="50" relative="1" as="geometry">
            <mxPoint x="867" y="440.5" as="sourcePoint" />
            <mxPoint x="1065" y="440.5" as="targetPoint" />
          </mxGeometry>
        </mxCell>
        <mxCell id="ZdthaMtyNPpBsi2oZ3e5-235" value="" style="endArrow=none;html=1;rounded=0;entryX=0.995;entryY=0.833;entryDx=0;entryDy=0;entryPerimeter=0;labelBackgroundColor=none;fontColor=default;jumpSize=7;opacity=30;" parent="1" edge="1">
          <mxGeometry width="50" height="50" relative="1" as="geometry">
            <mxPoint x="867" y="230" as="sourcePoint" />
            <mxPoint x="1065" y="230" as="targetPoint" />
          </mxGeometry>
        </mxCell>
        <mxCell id="ZdthaMtyNPpBsi2oZ3e5-237" value="" style="endArrow=none;html=1;rounded=0;fontFamily=Helvetica;fontSize=12;fontColor=default;labelBackgroundColor=none;" parent="1" edge="1">
          <mxGeometry width="50" height="50" relative="1" as="geometry">
            <mxPoint x="880" y="145" as="sourcePoint" />
            <mxPoint x="880" y="125" as="targetPoint" />
            <Array as="points">
              <mxPoint x="870" y="135" />
            </Array>
          </mxGeometry>
        </mxCell>
        <mxCell id="ZdthaMtyNPpBsi2oZ3e5-238" value="&lt;span style=&quot;font-size: 14px;&quot;&gt;&lt;b style=&quot;&quot;&gt;Gly&lt;/b&gt;&lt;/span&gt;" style="text;strokeColor=none;align=center;fillColor=none;html=1;verticalAlign=middle;whiteSpace=wrap;rounded=0;fontFamily=Helvetica;fontSize=12;fontColor=default;labelBackgroundColor=none;" parent="1" vertex="1">
          <mxGeometry x="865" y="200" width="50" height="30" as="geometry" />
        </mxCell>
        <mxCell id="ZdthaMtyNPpBsi2oZ3e5-250" value="" style="shape=table;startSize=0;container=1;collapsible=0;childLayout=tableLayout;fontSize=11;fillColor=none;strokeColor=none;rounded=1;shadow=1;align=center;verticalAlign=middle;arcSize=13;fontFamily=Helvetica;fontColor=default;labelBackgroundColor=none;" parent="1" vertex="1">
          <mxGeometry x="865" y="280" width="150" height="165.5" as="geometry" />
        </mxCell>
        <mxCell id="-kzCH3ajNWqmzhJfIoFS-3" value="" style="shape=tableRow;horizontal=0;startSize=0;swimlaneHead=0;swimlaneBody=0;strokeColor=inherit;top=0;left=0;bottom=0;right=0;collapsible=0;dropTarget=0;fillColor=none;points=[[0,0.5],[1,0.5]];portConstraint=eastwest;fontSize=16;rounded=1;shadow=1;align=center;verticalAlign=middle;arcSize=13;fontFamily=Helvetica;fontColor=default;labelBackgroundColor=none;" parent="ZdthaMtyNPpBsi2oZ3e5-250" vertex="1">
          <mxGeometry width="150" height="35" as="geometry" />
        </mxCell>
        <mxCell id="-kzCH3ajNWqmzhJfIoFS-4" value="Glycin" style="shape=partialRectangle;html=1;whiteSpace=wrap;connectable=0;strokeColor=inherit;overflow=hidden;fillColor=none;top=0;left=0;bottom=0;right=0;pointerEvents=1;fontSize=12;align=left;spacingLeft=5;rounded=1;shadow=1;verticalAlign=middle;arcSize=13;fontFamily=Helvetica;fontColor=default;labelBackgroundColor=none;" parent="-kzCH3ajNWqmzhJfIoFS-3" vertex="1">
          <mxGeometry width="150" height="35" as="geometry">
            <mxRectangle width="150" height="35" as="alternateBounds" />
          </mxGeometry>
        </mxCell>
        <mxCell id="ZdthaMtyNPpBsi2oZ3e5-251" value="" style="shape=tableRow;horizontal=0;startSize=0;swimlaneHead=0;swimlaneBody=0;strokeColor=inherit;top=0;left=0;bottom=0;right=0;collapsible=0;dropTarget=0;fillColor=none;points=[[0,0.5],[1,0.5]];portConstraint=eastwest;fontSize=16;rounded=1;shadow=1;align=center;verticalAlign=middle;arcSize=13;fontFamily=Helvetica;fontColor=default;labelBackgroundColor=none;" parent="ZdthaMtyNPpBsi2oZ3e5-250" vertex="1">
          <mxGeometry y="35" width="150" height="39" as="geometry" />
        </mxCell>
        <mxCell id="ZdthaMtyNPpBsi2oZ3e5-252" value="&lt;b&gt;Glycerin&lt;/b&gt;" style="shape=partialRectangle;html=1;whiteSpace=wrap;connectable=0;strokeColor=inherit;overflow=hidden;fillColor=none;top=0;left=0;bottom=0;right=0;pointerEvents=1;fontSize=12;align=left;spacingLeft=5;rounded=1;shadow=1;verticalAlign=middle;arcSize=13;fontFamily=Helvetica;fontColor=default;labelBackgroundColor=none;" parent="ZdthaMtyNPpBsi2oZ3e5-251" vertex="1">
          <mxGeometry width="150" height="39" as="geometry">
            <mxRectangle width="150" height="39" as="alternateBounds" />
          </mxGeometry>
        </mxCell>
        <mxCell id="ZdthaMtyNPpBsi2oZ3e5-253" value="" style="shape=tableRow;horizontal=0;startSize=0;swimlaneHead=0;swimlaneBody=0;strokeColor=inherit;top=0;left=0;bottom=0;right=0;collapsible=0;dropTarget=0;fillColor=none;points=[[0,0.5],[1,0.5]];portConstraint=eastwest;fontSize=16;rounded=1;shadow=1;align=center;verticalAlign=middle;arcSize=13;fontFamily=Helvetica;fontColor=default;labelBackgroundColor=none;" parent="ZdthaMtyNPpBsi2oZ3e5-250" vertex="1">
          <mxGeometry y="74" width="150" height="31" as="geometry" />
        </mxCell>
        <mxCell id="ZdthaMtyNPpBsi2oZ3e5-254" value="&lt;span style=&quot;background-color: rgb(255, 255, 255);&quot;&gt;&lt;font color=&quot;#a3a3a3&quot; face=&quot;Helvetica&quot; style=&quot;font-size: 12px;&quot;&gt;Glycolic Acid&lt;/font&gt;&lt;/span&gt;" style="shape=partialRectangle;html=1;whiteSpace=wrap;connectable=0;strokeColor=inherit;overflow=hidden;fillColor=none;top=0;left=0;bottom=0;right=0;pointerEvents=1;fontSize=12;align=left;spacingLeft=5;rounded=1;shadow=1;verticalAlign=middle;arcSize=13;fontFamily=Helvetica;fontColor=default;labelBackgroundColor=none;" parent="ZdthaMtyNPpBsi2oZ3e5-253" vertex="1">
          <mxGeometry width="150" height="31" as="geometry">
            <mxRectangle width="150" height="31" as="alternateBounds" />
          </mxGeometry>
        </mxCell>
        <mxCell id="ZdthaMtyNPpBsi2oZ3e5-255" value="" style="shape=tableRow;horizontal=0;startSize=0;swimlaneHead=0;swimlaneBody=0;strokeColor=inherit;top=0;left=0;bottom=0;right=0;collapsible=0;dropTarget=0;fillColor=none;points=[[0,0.5],[1,0.5]];portConstraint=eastwest;fontSize=16;rounded=1;shadow=1;align=center;verticalAlign=middle;arcSize=13;fontFamily=Helvetica;fontColor=default;labelBackgroundColor=none;" parent="ZdthaMtyNPpBsi2oZ3e5-250" vertex="1">
          <mxGeometry y="105" width="150" height="31" as="geometry" />
        </mxCell>
        <mxCell id="ZdthaMtyNPpBsi2oZ3e5-256" value="" style="shape=partialRectangle;html=1;whiteSpace=wrap;connectable=0;strokeColor=inherit;overflow=hidden;fillColor=none;top=0;left=0;bottom=0;right=0;pointerEvents=1;fontSize=12;align=left;spacingLeft=5;rounded=1;shadow=1;verticalAlign=middle;arcSize=13;fontFamily=Helvetica;fontColor=default;labelBackgroundColor=none;" parent="ZdthaMtyNPpBsi2oZ3e5-255" vertex="1">
          <mxGeometry width="150" height="31" as="geometry">
            <mxRectangle width="150" height="31" as="alternateBounds" />
          </mxGeometry>
        </mxCell>
        <mxCell id="ZdthaMtyNPpBsi2oZ3e5-257" style="shape=tableRow;horizontal=0;startSize=0;swimlaneHead=0;swimlaneBody=0;strokeColor=inherit;top=0;left=0;bottom=0;right=0;collapsible=0;dropTarget=0;fillColor=none;points=[[0,0.5],[1,0.5]];portConstraint=eastwest;fontSize=16;rounded=1;shadow=1;align=center;verticalAlign=middle;arcSize=13;fontFamily=Helvetica;fontColor=default;labelBackgroundColor=none;" parent="ZdthaMtyNPpBsi2oZ3e5-250" vertex="1">
          <mxGeometry y="136" width="150" height="30" as="geometry" />
        </mxCell>
        <mxCell id="ZdthaMtyNPpBsi2oZ3e5-258" value="" style="shape=partialRectangle;html=1;whiteSpace=wrap;connectable=0;strokeColor=inherit;overflow=hidden;fillColor=none;top=0;left=0;bottom=0;right=0;pointerEvents=1;fontSize=12;align=left;spacingLeft=5;rounded=1;shadow=1;verticalAlign=middle;arcSize=13;fontFamily=Helvetica;fontColor=default;labelBackgroundColor=none;" parent="ZdthaMtyNPpBsi2oZ3e5-257" vertex="1">
          <mxGeometry width="150" height="30" as="geometry">
            <mxRectangle width="150" height="30" as="alternateBounds" />
          </mxGeometry>
        </mxCell>
        <mxCell id="ZdthaMtyNPpBsi2oZ3e5-274" value="" style="verticalLabelPosition=bottom;verticalAlign=top;html=1;shape=mxgraph.basic.patternFillRect;fillStyle=diag;step=5;fillStrokeWidth=0.2;fillStrokeColor=#dddddd;rounded=1;shadow=1;strokeColor=#36393d;align=center;arcSize=13;fontFamily=Helvetica;fontSize=12;labelBackgroundColor=none;fillColor=#eeeeee;" parent="1" vertex="1">
          <mxGeometry x="897" y="410" width="136" height="25" as="geometry" />
        </mxCell>
        <mxCell id="ZdthaMtyNPpBsi2oZ3e5-273" value="&lt;font style=&quot;font-size: 11px;&quot;&gt;&lt;b&gt;показать 6986 продукта&lt;/b&gt;&lt;/font&gt;" style="text;strokeColor=none;align=center;fillColor=none;html=1;verticalAlign=middle;whiteSpace=wrap;rounded=0;fontFamily=Helvetica;fontSize=12;fontColor=default;labelBackgroundColor=none;strokeWidth=1;" parent="1" vertex="1">
          <mxGeometry x="895" y="407.5" width="140" height="30" as="geometry" />
        </mxCell>
        <mxCell id="dYEdAIXaL3cLcxX8QMDE-33" style="edgeStyle=orthogonalEdgeStyle;rounded=0;orthogonalLoop=1;jettySize=auto;html=1;entryX=0;entryY=0.5;entryDx=0;entryDy=0;exitX=0;exitY=0.5;exitDx=0;exitDy=0;dashed=1;" parent="1" source="ZdthaMtyNPpBsi2oZ3e5-280" target="dYEdAIXaL3cLcxX8QMDE-32" edge="1">
          <mxGeometry relative="1" as="geometry" />
        </mxCell>
        <mxCell id="ZdthaMtyNPpBsi2oZ3e5-280" value="" style="ellipse;whiteSpace=wrap;html=1;rounded=1;shadow=1;strokeColor=#CC0000;align=center;verticalAlign=middle;arcSize=13;fontFamily=Helvetica;fontSize=12;labelBackgroundColor=none;fillColor=none;strokeWidth=4;opacity=40;" parent="1" vertex="1">
          <mxGeometry x="50" y="170" width="42" height="30" as="geometry" />
        </mxCell>
        <mxCell id="ZdthaMtyNPpBsi2oZ3e5-281" value="" style="endArrow=classic;html=1;rounded=0;fontFamily=Helvetica;fontSize=12;fontColor=default;labelBackgroundColor=none;" parent="1" edge="1">
          <mxGeometry width="50" height="50" relative="1" as="geometry">
            <mxPoint x="250" y="279" as="sourcePoint" />
            <mxPoint x="320" y="279" as="targetPoint" />
          </mxGeometry>
        </mxCell>
        <mxCell id="ZdthaMtyNPpBsi2oZ3e5-239" value="" style="ellipse;whiteSpace=wrap;html=1;aspect=fixed;rounded=1;shadow=1;strokeColor=default;align=center;verticalAlign=middle;arcSize=13;fontFamily=Helvetica;fontSize=12;fontColor=default;labelBackgroundColor=none;fillColor=default;strokeWidth=2;opacity=30;" parent="1" vertex="1">
          <mxGeometry x="1035" y="210" width="10" height="10" as="geometry" />
        </mxCell>
        <mxCell id="ZdthaMtyNPpBsi2oZ3e5-290" value="" style="endArrow=none;html=1;rounded=0;shadow=1;endSize=7;startSize=7;jumpSize=7;labelBackgroundColor=none;fontColor=default;fillColor=#60a917;strokeColor=#000000;opacity=40;" parent="1" edge="1">
          <mxGeometry width="50" height="50" relative="1" as="geometry">
            <mxPoint x="1045" y="220" as="sourcePoint" />
            <mxPoint x="1055" y="230" as="targetPoint" />
          </mxGeometry>
        </mxCell>
        <mxCell id="ZdthaMtyNPpBsi2oZ3e5-296" style="edgeStyle=orthogonalEdgeStyle;rounded=0;orthogonalLoop=1;jettySize=auto;html=1;entryX=0;entryY=0.5;entryDx=0;entryDy=0;fontFamily=Helvetica;fontSize=12;fontColor=default;labelBackgroundColor=none;" parent="1" source="ZdthaMtyNPpBsi2oZ3e5-295" target="ZdthaMtyNPpBsi2oZ3e5-81" edge="1">
          <mxGeometry relative="1" as="geometry" />
        </mxCell>
        <mxCell id="ZdthaMtyNPpBsi2oZ3e5-295" value="" style="ellipse;whiteSpace=wrap;html=1;rounded=1;shadow=1;strokeColor=#CC0000;align=center;verticalAlign=middle;arcSize=13;fontFamily=Helvetica;fontSize=12;labelBackgroundColor=none;fillColor=none;strokeWidth=4;opacity=40;" parent="1" vertex="1">
          <mxGeometry x="320" y="320" width="170" height="30" as="geometry" />
        </mxCell>
        <mxCell id="ZdthaMtyNPpBsi2oZ3e5-297" value="" style="rounded=1;whiteSpace=wrap;html=1;shadow=1;arcSize=13;labelBackgroundColor=none;" parent="1" vertex="1">
          <mxGeometry x="1140" y="100" width="200" height="360" as="geometry" />
        </mxCell>
        <mxCell id="ZdthaMtyNPpBsi2oZ3e5-299" value="" style="endArrow=none;html=1;rounded=0;entryX=0.995;entryY=0.833;entryDx=0;entryDy=0;entryPerimeter=0;labelBackgroundColor=none;fontColor=default;" parent="1" edge="1">
          <mxGeometry width="50" height="50" relative="1" as="geometry">
            <mxPoint x="1140" y="439" as="sourcePoint" />
            <mxPoint x="1338" y="439" as="targetPoint" />
          </mxGeometry>
        </mxCell>
        <mxCell id="ZdthaMtyNPpBsi2oZ3e5-302" value="" style="rounded=0;whiteSpace=wrap;html=1;fillColor=#cdeb8b;strokeColor=#36393d;" parent="1" vertex="1">
          <mxGeometry x="1140" y="120" width="200" height="50" as="geometry" />
        </mxCell>
        <mxCell id="ZdthaMtyNPpBsi2oZ3e5-303" value="" style="shape=partialRectangle;whiteSpace=wrap;html=1;left=0;right=0;fillColor=none;rounded=1;shadow=1;strokeColor=default;align=center;verticalAlign=middle;arcSize=13;fontFamily=Helvetica;fontSize=12;fontColor=default;labelBackgroundColor=none;strokeWidth=1;" parent="1" vertex="1">
          <mxGeometry x="1147.38" y="177.75" width="25.25" height="12.25" as="geometry" />
        </mxCell>
        <mxCell id="ZdthaMtyNPpBsi2oZ3e5-308" value="" style="shape=waypoint;sketch=0;fillStyle=solid;size=6;pointerEvents=1;points=[];fillColor=none;resizable=0;rotatable=0;perimeter=centerPerimeter;snapToPoint=1;rounded=1;shadow=1;strokeColor=default;align=center;verticalAlign=middle;arcSize=13;fontFamily=Helvetica;fontSize=12;fontColor=default;labelBackgroundColor=none;" parent="1" vertex="1">
          <mxGeometry x="1160" y="167.75" width="20" height="20" as="geometry" />
        </mxCell>
        <mxCell id="ZdthaMtyNPpBsi2oZ3e5-311" value="" style="shape=waypoint;sketch=0;fillStyle=solid;size=6;pointerEvents=1;points=[];fillColor=none;resizable=0;rotatable=0;perimeter=centerPerimeter;snapToPoint=1;rounded=1;shadow=1;strokeColor=default;align=center;verticalAlign=middle;arcSize=13;fontFamily=Helvetica;fontSize=12;fontColor=default;labelBackgroundColor=none;" parent="1" vertex="1">
          <mxGeometry x="1147.38" y="180" width="20" height="20" as="geometry" />
        </mxCell>
        <mxCell id="ZdthaMtyNPpBsi2oZ3e5-312" value="&lt;font size=&quot;1&quot; style=&quot;&quot;&gt;&lt;b style=&quot;font-size: 14px;&quot;&gt;3&lt;/b&gt;&lt;/font&gt;" style="text;strokeColor=none;align=center;fillColor=none;html=1;verticalAlign=middle;whiteSpace=wrap;rounded=0;fontFamily=Helvetica;fontSize=12;fontColor=default;labelBackgroundColor=none;" parent="1" vertex="1">
          <mxGeometry x="1172.63" y="168.88" width="27.37" height="30" as="geometry" />
        </mxCell>
        <mxCell id="ZdthaMtyNPpBsi2oZ3e5-313" value="562 продукта" style="text;strokeColor=none;align=center;fillColor=none;html=1;verticalAlign=middle;whiteSpace=wrap;rounded=0;fontFamily=Helvetica;fontSize=12;fontColor=default;labelBackgroundColor=none;" parent="1" vertex="1">
          <mxGeometry x="1210" y="170" width="80" height="30" as="geometry" />
        </mxCell>
        <mxCell id="ZdthaMtyNPpBsi2oZ3e5-314" value="&lt;h2&gt;Уход за лицом&lt;/h2&gt;" style="text;strokeColor=none;align=center;fillColor=none;html=1;verticalAlign=middle;whiteSpace=wrap;rounded=0;" parent="1" vertex="1">
          <mxGeometry x="1140" y="140" width="150" height="30" as="geometry" />
        </mxCell>
        <mxCell id="ZdthaMtyNPpBsi2oZ3e5-315" value="Сыворотка" style="label;whiteSpace=wrap;html=1;align=center;verticalAlign=bottom;spacingLeft=0;spacingBottom=4;imageAlign=center;imageVerticalAlign=top;image=img/clipart/Gear_128x128.png;rounded=1;shadow=1;strokeColor=default;arcSize=13;fontFamily=Helvetica;fontSize=12;fontColor=default;labelBackgroundColor=none;fillColor=default;" parent="1" vertex="1">
          <mxGeometry x="1150" y="220" width="80" height="70" as="geometry" />
        </mxCell>
        <mxCell id="ZdthaMtyNPpBsi2oZ3e5-316" value="Крем" style="label;whiteSpace=wrap;html=1;align=center;verticalAlign=bottom;spacingLeft=0;spacingBottom=4;imageAlign=center;imageVerticalAlign=top;image=img/clipart/Gear_128x128.png;rounded=1;shadow=1;strokeColor=default;arcSize=13;fontFamily=Helvetica;fontSize=12;fontColor=default;labelBackgroundColor=none;fillColor=default;" parent="1" vertex="1">
          <mxGeometry x="1250" y="220" width="80" height="70" as="geometry" />
        </mxCell>
        <mxCell id="ZdthaMtyNPpBsi2oZ3e5-317" value="Гель" style="label;whiteSpace=wrap;html=1;align=center;verticalAlign=bottom;spacingLeft=0;spacingBottom=4;imageAlign=center;imageVerticalAlign=top;image=img/clipart/Gear_128x128.png;rounded=1;shadow=1;strokeColor=default;arcSize=13;fontFamily=Helvetica;fontSize=12;fontColor=default;labelBackgroundColor=none;fillColor=default;" parent="1" vertex="1">
          <mxGeometry x="1150" y="304" width="80" height="70" as="geometry" />
        </mxCell>
        <mxCell id="ZdthaMtyNPpBsi2oZ3e5-318" value="Тоник" style="label;whiteSpace=wrap;html=1;align=center;verticalAlign=bottom;spacingLeft=0;spacingBottom=4;imageAlign=center;imageVerticalAlign=top;image=img/clipart/Gear_128x128.png;rounded=1;shadow=1;strokeColor=default;arcSize=13;fontFamily=Helvetica;fontSize=12;fontColor=default;labelBackgroundColor=none;fillColor=default;" parent="1" vertex="1">
          <mxGeometry x="1250" y="304.5" width="80" height="70" as="geometry" />
        </mxCell>
        <mxCell id="ZdthaMtyNPpBsi2oZ3e5-319" value="" style="ellipse;whiteSpace=wrap;html=1;aspect=fixed;strokeWidth=2;perimeterSpacing=1;shadow=1;labelBackgroundColor=none;fillColor=#d5e8d4;strokeColor=#82b366;gradientColor=#97d077;" parent="1" vertex="1">
          <mxGeometry x="1155.0100000000002" y="414" width="10" height="10" as="geometry" />
        </mxCell>
        <mxCell id="ZdthaMtyNPpBsi2oZ3e5-320" value="" style="endArrow=none;html=1;rounded=0;entryX=0.995;entryY=0.833;entryDx=0;entryDy=0;entryPerimeter=0;labelBackgroundColor=none;fontColor=default;" parent="1" edge="1">
          <mxGeometry width="50" height="50" relative="1" as="geometry">
            <mxPoint x="1141" y="409" as="sourcePoint" />
            <mxPoint x="1339" y="409" as="targetPoint" />
          </mxGeometry>
        </mxCell>
        <mxCell id="ZdthaMtyNPpBsi2oZ3e5-321" value="" style="endArrow=none;html=1;rounded=0;shadow=1;endSize=7;startSize=7;jumpSize=7;labelBackgroundColor=none;fontColor=default;fillColor=#60a917;strokeColor=#2D7600;" parent="1" edge="1">
          <mxGeometry width="50" height="50" relative="1" as="geometry">
            <mxPoint x="1162.6299999999999" y="424" as="sourcePoint" />
            <mxPoint x="1172.6299999999999" y="434" as="targetPoint" />
          </mxGeometry>
        </mxCell>
        <mxCell id="ZdthaMtyNPpBsi2oZ3e5-322" value="" style="verticalLabelPosition=bottom;verticalAlign=top;html=1;shape=mxgraph.basic.heart;shadow=1;labelBackgroundColor=none;" parent="1" vertex="1">
          <mxGeometry x="1190" y="415" width="20" height="20" as="geometry" />
        </mxCell>
        <mxCell id="ZdthaMtyNPpBsi2oZ3e5-323" value="" style="verticalLabelPosition=bottom;verticalAlign=top;html=1;shape=mxgraph.flowchart.or;shadow=1;labelBackgroundColor=none;" parent="1" vertex="1">
          <mxGeometry x="1230" y="415" width="21" height="20" as="geometry" />
        </mxCell>
        <mxCell id="ZdthaMtyNPpBsi2oZ3e5-325" value="" style="shape=actor;whiteSpace=wrap;html=1;shadow=1;labelBackgroundColor=none;" parent="1" vertex="1">
          <mxGeometry x="1270" y="415" width="20" height="20" as="geometry" />
        </mxCell>
        <mxCell id="ZdthaMtyNPpBsi2oZ3e5-327" value="" style="html=1;shape=mxgraph.basic.isocube;isoAngle=15;shadow=1;labelBackgroundColor=none;" parent="1" vertex="1">
          <mxGeometry x="1310" y="415" width="20" height="20" as="geometry" />
        </mxCell>
        <mxCell id="ZdthaMtyNPpBsi2oZ3e5-331" value="&lt;div style=&quot;line-height: 140%;&quot;&gt;&lt;span style=&quot;font-size: 13px; background-color: initial;&quot;&gt;Поиск по названию подразумевает поиск по всем имеющимся в базе вариациям записи ингридиента по INCI.&lt;/span&gt;&lt;/div&gt;&lt;div style=&quot;font-size: 13px; line-height: 140%;&quot;&gt;&lt;font style=&quot;font-size: 13px;&quot;&gt;Например, поиск по фильтру &quot;Гиалуроновая кислота&quot; будет включать в себя несколько названий INCI (&lt;span style=&quot;background-color: rgb(255, 255, 255); font-family: &amp;quot;Open Sans&amp;quot;, sans-serif;&quot;&gt;Sodium Hyaluronate,&amp;nbsp;&lt;/span&gt;&lt;span style=&quot;background-color: rgb(255, 255, 255); font-family: &amp;quot;Open Sans&amp;quot;, sans-serif;&quot;&gt;Hydrolyzed Hyaluronic Acid,&amp;nbsp;&lt;/span&gt;&lt;span style=&quot;background-color: rgb(255, 255, 255); font-family: &amp;quot;Open Sans&amp;quot;, sans-serif;&quot;&gt;Hydroxypropyltrimonium Hyaluronate,&amp;nbsp;&lt;/span&gt;&lt;span style=&quot;background-color: rgb(255, 255, 255); font-family: &amp;quot;Open Sans&amp;quot;, sans-serif;&quot;&gt;Dimethylsilanol Hyaluronate, Hydrolyzed Sodium Hyaluronate, Potassium Hyaluronate, Hyaluronic Acid, Sodium Hyaluronate Crosspolymer, Sodium Acetylated Hyaluronate, Sodium Hyaluronate Dimethylsilanol, Ascorbyl Propyl Hyaluronate&lt;/span&gt;&lt;span style=&quot;background-color: initial;&quot;&gt;).&lt;/span&gt;&lt;/font&gt;&lt;/div&gt;" style="text;strokeColor=none;align=left;fillColor=none;html=1;verticalAlign=middle;whiteSpace=wrap;rounded=0;fontFamily=Helvetica;fontSize=12;fontColor=default;labelBackgroundColor=none;" parent="1" vertex="1">
          <mxGeometry x="1001.32" y="-195" width="370" height="195" as="geometry" />
        </mxCell>
        <mxCell id="dYEdAIXaL3cLcxX8QMDE-35" style="edgeStyle=orthogonalEdgeStyle;rounded=0;orthogonalLoop=1;jettySize=auto;html=1;entryX=0;entryY=0.5;entryDx=0;entryDy=0;exitX=0;exitY=0.5;exitDx=0;exitDy=0;dashed=1;" parent="1" source="ZdthaMtyNPpBsi2oZ3e5-337" target="dYEdAIXaL3cLcxX8QMDE-34" edge="1">
          <mxGeometry relative="1" as="geometry" />
        </mxCell>
        <mxCell id="ZdthaMtyNPpBsi2oZ3e5-337" value="" style="ellipse;whiteSpace=wrap;html=1;rounded=1;shadow=1;strokeColor=#CC0000;align=center;verticalAlign=middle;arcSize=13;fontFamily=Helvetica;fontSize=12;labelBackgroundColor=none;fillColor=none;strokeWidth=4;opacity=40;" parent="1" vertex="1">
          <mxGeometry x="1140.01" y="170" width="40" height="30" as="geometry" />
        </mxCell>
        <mxCell id="-kzCH3ajNWqmzhJfIoFS-1" style="edgeStyle=orthogonalEdgeStyle;rounded=0;orthogonalLoop=1;jettySize=auto;html=1;entryX=0;entryY=0.606;entryDx=0;entryDy=0;entryPerimeter=0;" parent="1" source="ZdthaMtyNPpBsi2oZ3e5-273" target="ZdthaMtyNPpBsi2oZ3e5-297" edge="1">
          <mxGeometry relative="1" as="geometry" />
        </mxCell>
        <mxCell id="-kzCH3ajNWqmzhJfIoFS-2" value="" style="ellipse;whiteSpace=wrap;html=1;rounded=1;shadow=1;strokeColor=#0000FF;align=center;verticalAlign=middle;arcSize=13;fontFamily=Helvetica;fontSize=12;labelBackgroundColor=none;fillColor=none;strokeWidth=4;opacity=40;" parent="1" vertex="1">
          <mxGeometry x="875" y="410" width="170" height="30" as="geometry" />
        </mxCell>
        <mxCell id="-kzCH3ajNWqmzhJfIoFS-5" value="" style="html=1;outlineConnect=0;whiteSpace=wrap;fillColor=#EBEBEB;shape=mxgraph.archimate3.service;" parent="1" vertex="1">
          <mxGeometry x="1025" y="293.5" width="30" height="11" as="geometry" />
        </mxCell>
        <mxCell id="-kzCH3ajNWqmzhJfIoFS-6" value="" style="html=1;outlineConnect=0;whiteSpace=wrap;fillColor=#B3B3B3;shape=mxgraph.archimate3.service;" parent="1" vertex="1">
          <mxGeometry x="1025" y="329.5" width="30" height="11" as="geometry" />
        </mxCell>
        <mxCell id="-kzCH3ajNWqmzhJfIoFS-7" value="" style="html=1;outlineConnect=0;whiteSpace=wrap;fillColor=#EBEBEB;shape=mxgraph.archimate3.service;" parent="1" vertex="1">
          <mxGeometry x="1025" y="365" width="30" height="11" as="geometry" />
        </mxCell>
        <mxCell id="-kzCH3ajNWqmzhJfIoFS-9" value="" style="verticalLabelPosition=bottom;verticalAlign=top;html=1;shape=mxgraph.flowchart.on-page_reference;fillColor=#B3B3B3;" parent="1" vertex="1">
          <mxGeometry x="1035" y="294" width="10" height="10" as="geometry" />
        </mxCell>
        <mxCell id="-kzCH3ajNWqmzhJfIoFS-10" value="" style="verticalLabelPosition=bottom;verticalAlign=top;html=1;shape=mxgraph.flowchart.on-page_reference;fillColor=#000000;" parent="1" vertex="1">
          <mxGeometry x="1045" y="329.5" width="10" height="10" as="geometry" />
        </mxCell>
        <mxCell id="-kzCH3ajNWqmzhJfIoFS-11" value="" style="verticalLabelPosition=bottom;verticalAlign=top;html=1;shape=mxgraph.flowchart.on-page_reference;fillColor=#CCCCCC;" parent="1" vertex="1">
          <mxGeometry x="1025" y="365" width="10" height="10" as="geometry" />
        </mxCell>
        <mxCell id="-kzCH3ajNWqmzhJfIoFS-14" value="&lt;font style=&quot;font-size: 10px;&quot;&gt;искать : Glycerin &lt;b&gt;x&lt;/b&gt;&lt;/font&gt;" style="text;strokeColor=none;align=center;fillColor=none;html=1;verticalAlign=middle;whiteSpace=wrap;rounded=0;" parent="1" vertex="1">
          <mxGeometry x="860" y="230" width="110" height="30" as="geometry" />
        </mxCell>
        <mxCell id="-kzCH3ajNWqmzhJfIoFS-15" value="&lt;font style=&quot;font-size: 10px;&quot;&gt;исключить: Glycolyc Acid &lt;b&gt;&lt;font style=&quot;font-size: 10px;&quot;&gt;x&lt;/font&gt;&lt;/b&gt;&lt;/font&gt;" style="text;strokeColor=none;align=center;fillColor=none;html=1;verticalAlign=middle;whiteSpace=wrap;rounded=0;" parent="1" vertex="1">
          <mxGeometry x="865" y="250" width="140" height="30" as="geometry" />
        </mxCell>
        <mxCell id="ZdthaMtyNPpBsi2oZ3e5-96" value="" style="shape=table;startSize=0;container=1;collapsible=0;childLayout=tableLayout;fontSize=11;fillColor=none;strokeColor=none;rounded=1;shadow=1;align=center;verticalAlign=middle;arcSize=13;fontFamily=Helvetica;fontColor=default;labelBackgroundColor=none;" parent="1" vertex="1">
          <mxGeometry x="600" y="285" width="150" height="120" as="geometry" />
        </mxCell>
        <mxCell id="ZdthaMtyNPpBsi2oZ3e5-97" value="" style="shape=tableRow;horizontal=0;startSize=0;swimlaneHead=0;swimlaneBody=0;strokeColor=inherit;top=0;left=0;bottom=0;right=0;collapsible=0;dropTarget=0;fillColor=none;points=[[0,0.5],[1,0.5]];portConstraint=eastwest;fontSize=16;rounded=1;shadow=1;align=center;verticalAlign=middle;arcSize=13;fontFamily=Helvetica;fontColor=default;labelBackgroundColor=none;" parent="ZdthaMtyNPpBsi2oZ3e5-96" vertex="1">
          <mxGeometry width="150" height="30" as="geometry" />
        </mxCell>
        <mxCell id="ZdthaMtyNPpBsi2oZ3e5-98" value="Ретинол" style="shape=partialRectangle;html=1;whiteSpace=wrap;connectable=0;strokeColor=inherit;overflow=hidden;fillColor=none;top=0;left=0;bottom=0;right=0;pointerEvents=1;fontSize=12;align=left;spacingLeft=5;rounded=1;shadow=1;verticalAlign=middle;arcSize=13;fontFamily=Helvetica;fontColor=default;labelBackgroundColor=none;" parent="ZdthaMtyNPpBsi2oZ3e5-97" vertex="1">
          <mxGeometry width="150" height="30" as="geometry">
            <mxRectangle width="150" height="30" as="alternateBounds" />
          </mxGeometry>
        </mxCell>
        <mxCell id="ZdthaMtyNPpBsi2oZ3e5-99" value="" style="shape=tableRow;horizontal=0;startSize=0;swimlaneHead=0;swimlaneBody=0;strokeColor=inherit;top=0;left=0;bottom=0;right=0;collapsible=0;dropTarget=0;fillColor=none;points=[[0,0.5],[1,0.5]];portConstraint=eastwest;fontSize=16;rounded=1;shadow=1;align=center;verticalAlign=middle;arcSize=13;fontFamily=Helvetica;fontColor=default;labelBackgroundColor=none;" parent="ZdthaMtyNPpBsi2oZ3e5-96" vertex="1">
          <mxGeometry y="30" width="150" height="30" as="geometry" />
        </mxCell>
        <mxCell id="ZdthaMtyNPpBsi2oZ3e5-100" value="&lt;b&gt;Гиалуроновая кислота&lt;/b&gt;" style="shape=partialRectangle;html=1;whiteSpace=wrap;connectable=0;strokeColor=inherit;overflow=hidden;fillColor=none;top=0;left=0;bottom=0;right=0;pointerEvents=1;fontSize=12;align=left;spacingLeft=5;rounded=1;shadow=1;verticalAlign=middle;arcSize=13;fontFamily=Helvetica;fontColor=default;labelBackgroundColor=none;" parent="ZdthaMtyNPpBsi2oZ3e5-99" vertex="1">
          <mxGeometry width="150" height="30" as="geometry">
            <mxRectangle width="150" height="30" as="alternateBounds" />
          </mxGeometry>
        </mxCell>
        <mxCell id="ZdthaMtyNPpBsi2oZ3e5-101" value="" style="shape=tableRow;horizontal=0;startSize=0;swimlaneHead=0;swimlaneBody=0;strokeColor=inherit;top=0;left=0;bottom=0;right=0;collapsible=0;dropTarget=0;fillColor=none;points=[[0,0.5],[1,0.5]];portConstraint=eastwest;fontSize=16;rounded=1;shadow=1;align=center;verticalAlign=middle;arcSize=13;fontFamily=Helvetica;fontColor=default;labelBackgroundColor=none;" parent="ZdthaMtyNPpBsi2oZ3e5-96" vertex="1">
          <mxGeometry y="60" width="150" height="30" as="geometry" />
        </mxCell>
        <mxCell id="ZdthaMtyNPpBsi2oZ3e5-102" value="&lt;b&gt;Витамин С&lt;/b&gt;" style="shape=partialRectangle;html=1;whiteSpace=wrap;connectable=0;strokeColor=inherit;overflow=hidden;fillColor=none;top=0;left=0;bottom=0;right=0;pointerEvents=1;fontSize=12;align=left;spacingLeft=5;rounded=1;shadow=1;verticalAlign=middle;arcSize=13;fontFamily=Helvetica;fontColor=default;labelBackgroundColor=none;" parent="ZdthaMtyNPpBsi2oZ3e5-101" vertex="1">
          <mxGeometry width="150" height="30" as="geometry">
            <mxRectangle width="150" height="30" as="alternateBounds" />
          </mxGeometry>
        </mxCell>
        <mxCell id="ZdthaMtyNPpBsi2oZ3e5-103" style="shape=tableRow;horizontal=0;startSize=0;swimlaneHead=0;swimlaneBody=0;strokeColor=inherit;top=0;left=0;bottom=0;right=0;collapsible=0;dropTarget=0;fillColor=none;points=[[0,0.5],[1,0.5]];portConstraint=eastwest;fontSize=16;rounded=1;shadow=1;align=center;verticalAlign=middle;arcSize=13;fontFamily=Helvetica;fontColor=default;labelBackgroundColor=none;" parent="ZdthaMtyNPpBsi2oZ3e5-96" vertex="1">
          <mxGeometry y="90" width="150" height="30" as="geometry" />
        </mxCell>
        <mxCell id="ZdthaMtyNPpBsi2oZ3e5-104" value="&lt;font color=&quot;#a3a3a3&quot;&gt;Пептиды&lt;/font&gt;" style="shape=partialRectangle;html=1;whiteSpace=wrap;connectable=0;strokeColor=inherit;overflow=hidden;fillColor=none;top=0;left=0;bottom=0;right=0;pointerEvents=1;fontSize=12;align=left;spacingLeft=5;rounded=1;shadow=1;verticalAlign=middle;arcSize=13;fontFamily=Helvetica;fontColor=default;labelBackgroundColor=none;" parent="ZdthaMtyNPpBsi2oZ3e5-103" vertex="1">
          <mxGeometry width="150" height="30" as="geometry">
            <mxRectangle width="150" height="30" as="alternateBounds" />
          </mxGeometry>
        </mxCell>
        <mxCell id="-kzCH3ajNWqmzhJfIoFS-30" value="&lt;font style=&quot;font-size: 10px;&quot;&gt;искать : Гиалуроновая кислота&amp;nbsp;&lt;b&gt;x, &lt;/b&gt;Витамин &lt;b&gt;С x&lt;/b&gt;&lt;/font&gt;" style="text;strokeColor=none;align=left;fillColor=none;html=1;verticalAlign=middle;whiteSpace=wrap;rounded=0;" parent="1" vertex="1">
          <mxGeometry x="605" y="235" width="180" height="30" as="geometry" />
        </mxCell>
        <mxCell id="-kzCH3ajNWqmzhJfIoFS-31" value="" style="html=1;outlineConnect=0;whiteSpace=wrap;fillColor=#EBEBEB;shape=mxgraph.archimate3.service;" parent="1" vertex="1">
          <mxGeometry x="766" y="293.5" width="30" height="11" as="geometry" />
        </mxCell>
        <mxCell id="-kzCH3ajNWqmzhJfIoFS-32" value="" style="html=1;outlineConnect=0;whiteSpace=wrap;fillColor=#B3B3B3;shape=mxgraph.archimate3.service;" parent="1" vertex="1">
          <mxGeometry x="766" y="320" width="30" height="11" as="geometry" />
        </mxCell>
        <mxCell id="-kzCH3ajNWqmzhJfIoFS-33" value="" style="html=1;outlineConnect=0;whiteSpace=wrap;fillColor=#B3B3B3;shape=mxgraph.archimate3.service;" parent="1" vertex="1">
          <mxGeometry x="766" y="354" width="30" height="11" as="geometry" />
        </mxCell>
        <mxCell id="-kzCH3ajNWqmzhJfIoFS-34" value="" style="html=1;outlineConnect=0;whiteSpace=wrap;fillColor=#EBEBEB;shape=mxgraph.archimate3.service;" parent="1" vertex="1">
          <mxGeometry x="765" y="384" width="30" height="11" as="geometry" />
        </mxCell>
        <mxCell id="-kzCH3ajNWqmzhJfIoFS-37" value="" style="verticalLabelPosition=bottom;verticalAlign=top;html=1;shape=mxgraph.flowchart.on-page_reference;fillColor=#B3B3B3;" parent="1" vertex="1">
          <mxGeometry x="776" y="294.5" width="10" height="10" as="geometry" />
        </mxCell>
        <mxCell id="-kzCH3ajNWqmzhJfIoFS-38" value="" style="verticalLabelPosition=bottom;verticalAlign=top;html=1;shape=mxgraph.flowchart.on-page_reference;fillColor=#000000;" parent="1" vertex="1">
          <mxGeometry x="785" y="320.5" width="10" height="10" as="geometry" />
        </mxCell>
        <mxCell id="-kzCH3ajNWqmzhJfIoFS-39" value="" style="verticalLabelPosition=bottom;verticalAlign=top;html=1;shape=mxgraph.flowchart.on-page_reference;fillColor=#000000;" parent="1" vertex="1">
          <mxGeometry x="785" y="355" width="10" height="10" as="geometry" />
        </mxCell>
        <mxCell id="-kzCH3ajNWqmzhJfIoFS-40" value="" style="verticalLabelPosition=bottom;verticalAlign=top;html=1;shape=mxgraph.flowchart.on-page_reference;fillColor=#CCCCCC;" parent="1" vertex="1">
          <mxGeometry x="765" y="385" width="10" height="10" as="geometry" />
        </mxCell>
        <mxCell id="-kzCH3ajNWqmzhJfIoFS-41" value="&lt;div style=&quot;&quot;&gt;&lt;span style=&quot;font-size: 10px; background-color: initial;&quot;&gt;исключить: Пептиды&amp;nbsp;&lt;/span&gt;&lt;b style=&quot;font-size: 10px; background-color: initial;&quot;&gt;x&lt;/b&gt;&lt;/div&gt;" style="text;strokeColor=none;align=left;fillColor=none;html=1;verticalAlign=middle;whiteSpace=wrap;rounded=0;" parent="1" vertex="1">
          <mxGeometry x="605" y="260" width="140" height="30" as="geometry" />
        </mxCell>
        <mxCell id="-kzCH3ajNWqmzhJfIoFS-43" value="&lt;font style=&quot;font-size: 10px;&quot;&gt;сбросить&lt;/font&gt;" style="text;strokeColor=none;align=center;fillColor=none;html=1;verticalAlign=middle;whiteSpace=wrap;rounded=0;" parent="1" vertex="1">
          <mxGeometry x="740" y="120" width="60" height="30" as="geometry" />
        </mxCell>
        <mxCell id="-kzCH3ajNWqmzhJfIoFS-45" value="" style="shape=note;whiteSpace=wrap;html=1;backgroundOutline=1;darkOpacity=0.05;" parent="1" vertex="1">
          <mxGeometry x="650" y="-100" width="285" height="140" as="geometry" />
        </mxCell>
        <mxCell id="-kzCH3ajNWqmzhJfIoFS-46" value="&amp;nbsp;- стандартное положение кнопки&lt;div&gt;&lt;br&gt;&lt;/div&gt;&lt;div&gt;&amp;nbsp;- влючить ингридиент в поиск&lt;/div&gt;&lt;div&gt;&lt;br&gt;&lt;/div&gt;&lt;div&gt;- исключить ингридиент из поиска&lt;/div&gt;" style="text;strokeColor=none;align=right;fillColor=none;html=1;verticalAlign=middle;whiteSpace=wrap;rounded=0;" parent="1" vertex="1">
          <mxGeometry x="675" y="-95" width="235" height="140" as="geometry" />
        </mxCell>
        <mxCell id="-kzCH3ajNWqmzhJfIoFS-47" value="" style="html=1;outlineConnect=0;whiteSpace=wrap;fillColor=#EBEBEB;shape=mxgraph.archimate3.service;" parent="1" vertex="1">
          <mxGeometry x="670" y="-61" width="30" height="11" as="geometry" />
        </mxCell>
        <mxCell id="-kzCH3ajNWqmzhJfIoFS-48" value="" style="html=1;outlineConnect=0;whiteSpace=wrap;fillColor=#EBEBEB;shape=mxgraph.archimate3.service;" parent="1" vertex="1">
          <mxGeometry x="670" width="30" height="11" as="geometry" />
        </mxCell>
        <mxCell id="-kzCH3ajNWqmzhJfIoFS-49" value="" style="html=1;outlineConnect=0;whiteSpace=wrap;fillColor=#B3B3B3;shape=mxgraph.archimate3.service;" parent="1" vertex="1">
          <mxGeometry x="670" y="-30.5" width="30" height="11" as="geometry" />
        </mxCell>
        <mxCell id="-kzCH3ajNWqmzhJfIoFS-53" value="" style="verticalLabelPosition=bottom;verticalAlign=top;html=1;shape=mxgraph.flowchart.on-page_reference;fillColor=#B3B3B3;" parent="1" vertex="1">
          <mxGeometry x="680" y="-60" width="10" height="10" as="geometry" />
        </mxCell>
        <mxCell id="-kzCH3ajNWqmzhJfIoFS-54" value="" style="verticalLabelPosition=bottom;verticalAlign=top;html=1;shape=mxgraph.flowchart.on-page_reference;fillColor=#CCCCCC;" parent="1" vertex="1">
          <mxGeometry x="670" width="10" height="10" as="geometry" />
        </mxCell>
        <mxCell id="-kzCH3ajNWqmzhJfIoFS-55" value="" style="verticalLabelPosition=bottom;verticalAlign=top;html=1;shape=mxgraph.flowchart.on-page_reference;fillColor=#000000;" parent="1" vertex="1">
          <mxGeometry x="690" y="-30.5" width="10" height="10" as="geometry" />
        </mxCell>
        <mxCell id="nEWK30hVgXShMv6zNq7h-1" value="" style="verticalLabelPosition=bottom;verticalAlign=top;html=1;shape=mxgraph.basic.patternFillRect;fillStyle=diag;step=5;fillStrokeWidth=0.2;fillStrokeColor=#dddddd;fillColor=#DEDEDE;" parent="1" vertex="1">
          <mxGeometry x="600" y="157.75" width="100" height="30" as="geometry" />
        </mxCell>
        <mxCell id="nEWK30hVgXShMv6zNq7h-2" value="" style="verticalLabelPosition=bottom;verticalAlign=top;html=1;shape=mxgraph.basic.patternFillRect;fillStyle=diag;step=5;fillStrokeWidth=0.2;fillStrokeColor=#dddddd;" parent="1" vertex="1">
          <mxGeometry x="700" y="157.75" width="100" height="30" as="geometry" />
        </mxCell>
        <mxCell id="nEWK30hVgXShMv6zNq7h-3" value="&lt;b&gt;название&lt;/b&gt;" style="text;strokeColor=none;align=center;fillColor=none;html=1;verticalAlign=middle;whiteSpace=wrap;rounded=0;" parent="1" vertex="1">
          <mxGeometry x="620" y="157.75" width="60" height="30" as="geometry" />
        </mxCell>
        <mxCell id="nEWK30hVgXShMv6zNq7h-4" value="INCI" style="text;strokeColor=none;align=center;fillColor=none;html=1;verticalAlign=middle;whiteSpace=wrap;rounded=0;" parent="1" vertex="1">
          <mxGeometry x="720" y="157.75" width="60" height="30" as="geometry" />
        </mxCell>
        <mxCell id="nEWK30hVgXShMv6zNq7h-7" value="" style="endArrow=none;html=1;rounded=0;shadow=1;endSize=7;startSize=7;jumpSize=7;labelBackgroundColor=none;fontColor=default;fillColor=#60a917;strokeColor=#000000;opacity=40;" parent="1" target="ZdthaMtyNPpBsi2oZ3e5-82" edge="1">
          <mxGeometry width="50" height="50" relative="1" as="geometry">
            <mxPoint x="780" y="220" as="sourcePoint" />
            <mxPoint x="790" y="230" as="targetPoint" />
          </mxGeometry>
        </mxCell>
        <mxCell id="ZdthaMtyNPpBsi2oZ3e5-82" value="" style="ellipse;whiteSpace=wrap;html=1;aspect=fixed;rounded=1;shadow=1;strokeColor=default;align=center;verticalAlign=middle;arcSize=13;fontFamily=Helvetica;fontSize=12;fontColor=default;labelBackgroundColor=none;fillColor=default;strokeWidth=2;opacity=30;" parent="1" vertex="1">
          <mxGeometry x="770" y="210" width="10" height="10" as="geometry" />
        </mxCell>
        <mxCell id="dYEdAIXaL3cLcxX8QMDE-2" value="&lt;font style=&quot;font-size: 13px;&quot;&gt;&lt;b&gt;ингридиент&lt;/b&gt;&lt;/font&gt;" style="text;strokeColor=none;align=center;fillColor=none;html=1;verticalAlign=middle;whiteSpace=wrap;rounded=0;fontFamily=Helvetica;fontSize=12;fontColor=default;labelBackgroundColor=none;" parent="1" vertex="1">
          <mxGeometry x="935" y="120" width="60" height="30" as="geometry" />
        </mxCell>
        <mxCell id="dYEdAIXaL3cLcxX8QMDE-3" value="&lt;font style=&quot;font-size: 10px;&quot;&gt;сбросить&lt;/font&gt;" style="text;strokeColor=none;align=center;fillColor=none;html=1;verticalAlign=middle;whiteSpace=wrap;rounded=0;" parent="1" vertex="1">
          <mxGeometry x="1005" y="120" width="60" height="30" as="geometry" />
        </mxCell>
        <mxCell id="dYEdAIXaL3cLcxX8QMDE-6" value="" style="verticalLabelPosition=bottom;verticalAlign=top;html=1;shape=mxgraph.basic.patternFillRect;fillStyle=diag;step=5;fillStrokeWidth=0.2;fillStrokeColor=#dddddd;fillColor=#DEDEDE;" parent="1" vertex="1">
          <mxGeometry x="965" y="157.75" width="100" height="30" as="geometry" />
        </mxCell>
        <mxCell id="dYEdAIXaL3cLcxX8QMDE-7" value="" style="verticalLabelPosition=bottom;verticalAlign=top;html=1;shape=mxgraph.basic.patternFillRect;fillStyle=diag;step=5;fillStrokeWidth=0.2;fillStrokeColor=#dddddd;" parent="1" vertex="1">
          <mxGeometry x="865" y="157.75" width="100" height="30" as="geometry" />
        </mxCell>
        <mxCell id="dYEdAIXaL3cLcxX8QMDE-5" value="&lt;b&gt;INCI&lt;/b&gt;" style="text;strokeColor=none;align=center;fillColor=none;html=1;verticalAlign=middle;whiteSpace=wrap;rounded=0;" parent="1" vertex="1">
          <mxGeometry x="985" y="157.75" width="60" height="30" as="geometry" />
        </mxCell>
        <mxCell id="dYEdAIXaL3cLcxX8QMDE-4" value="название" style="text;strokeColor=none;align=center;fillColor=none;html=1;verticalAlign=middle;whiteSpace=wrap;rounded=0;" parent="1" vertex="1">
          <mxGeometry x="885" y="157.75" width="60" height="30" as="geometry" />
        </mxCell>
        <mxCell id="dYEdAIXaL3cLcxX8QMDE-9" value="" style="endArrow=none;html=1;rounded=0;shadow=1;endSize=7;startSize=7;jumpSize=7;labelBackgroundColor=none;fontColor=default;fillColor=#60a917;strokeColor=#000000;opacity=40;" parent="1" edge="1">
          <mxGeometry width="50" height="50" relative="1" as="geometry">
            <mxPoint x="780" y="220" as="sourcePoint" />
            <mxPoint x="790" y="230" as="targetPoint" />
          </mxGeometry>
        </mxCell>
        <mxCell id="dYEdAIXaL3cLcxX8QMDE-15" style="edgeStyle=orthogonalEdgeStyle;rounded=0;orthogonalLoop=1;jettySize=auto;html=1;entryX=0;entryY=0.5;entryDx=0;entryDy=0;" parent="1" source="dYEdAIXaL3cLcxX8QMDE-14" target="-kzCH3ajNWqmzhJfIoFS-2" edge="1">
          <mxGeometry relative="1" as="geometry" />
        </mxCell>
        <mxCell id="dYEdAIXaL3cLcxX8QMDE-14" value="" style="ellipse;whiteSpace=wrap;html=1;rounded=1;shadow=1;strokeColor=#0000FF;align=center;verticalAlign=middle;arcSize=13;fontFamily=Helvetica;fontSize=12;labelBackgroundColor=none;fillColor=none;strokeWidth=4;opacity=40;" parent="1" vertex="1">
          <mxGeometry x="616" y="410" width="170" height="30" as="geometry" />
        </mxCell>
        <mxCell id="dYEdAIXaL3cLcxX8QMDE-16" value="" style="ellipse;whiteSpace=wrap;html=1;rounded=1;shadow=1;strokeColor=#CC0000;align=center;verticalAlign=middle;arcSize=13;fontFamily=Helvetica;fontSize=12;labelBackgroundColor=none;fillColor=none;strokeWidth=4;opacity=40;" parent="1" vertex="1">
          <mxGeometry x="605" y="160" width="90" height="30" as="geometry" />
        </mxCell>
        <mxCell id="dYEdAIXaL3cLcxX8QMDE-18" value="" style="ellipse;whiteSpace=wrap;html=1;rounded=1;shadow=1;strokeColor=#CC0000;align=center;verticalAlign=middle;arcSize=13;fontFamily=Helvetica;fontSize=12;labelBackgroundColor=none;fillColor=none;strokeWidth=4;opacity=40;" parent="1" vertex="1">
          <mxGeometry x="970" y="157.75" width="90" height="30" as="geometry" />
        </mxCell>
        <mxCell id="dYEdAIXaL3cLcxX8QMDE-22" style="edgeStyle=orthogonalEdgeStyle;rounded=0;orthogonalLoop=1;jettySize=auto;html=1;exitX=1;exitY=0.5;exitDx=0;exitDy=0;exitPerimeter=0;dashed=1;entryX=0.249;entryY=1.005;entryDx=0;entryDy=0;entryPerimeter=0;" parent="1" source="dYEdAIXaL3cLcxX8QMDE-6" target="dYEdAIXaL3cLcxX8QMDE-24" edge="1">
          <mxGeometry relative="1" as="geometry">
            <mxPoint x="1123" y="13" as="targetPoint" />
          </mxGeometry>
        </mxCell>
        <mxCell id="dYEdAIXaL3cLcxX8QMDE-23" style="edgeStyle=orthogonalEdgeStyle;rounded=0;orthogonalLoop=1;jettySize=auto;html=1;entryX=0;entryY=0;entryDx=30;entryDy=5.5;entryPerimeter=0;exitX=0.634;exitY=0.993;exitDx=0;exitDy=0;exitPerimeter=0;dashed=1;" parent="1" source="-kzCH3ajNWqmzhJfIoFS-46" target="-kzCH3ajNWqmzhJfIoFS-31" edge="1">
          <mxGeometry relative="1" as="geometry" />
        </mxCell>
        <mxCell id="dYEdAIXaL3cLcxX8QMDE-25" value="&lt;b&gt;1. Каталог средств для ухода за лицом&lt;/b&gt;" style="text;strokeColor=none;align=center;fillColor=none;html=1;verticalAlign=middle;whiteSpace=wrap;rounded=0;" parent="1" vertex="1">
          <mxGeometry x="75" y="480" width="150" height="30" as="geometry" />
        </mxCell>
        <mxCell id="dYEdAIXaL3cLcxX8QMDE-26" value="&lt;b&gt;2. Выбор фильтров для поиска&lt;/b&gt;" style="text;strokeColor=none;align=center;fillColor=none;html=1;verticalAlign=middle;whiteSpace=wrap;rounded=0;" parent="1" vertex="1">
          <mxGeometry x="345" y="480" width="150" height="30" as="geometry" />
        </mxCell>
        <mxCell id="dYEdAIXaL3cLcxX8QMDE-27" value="" style="endArrow=none;html=1;rounded=0;fontFamily=Helvetica;fontSize=12;fontColor=default;labelBackgroundColor=none;" parent="1" edge="1">
          <mxGeometry width="50" height="50" relative="1" as="geometry">
            <mxPoint x="340" y="145" as="sourcePoint" />
            <mxPoint x="340" y="125" as="targetPoint" />
            <Array as="points">
              <mxPoint x="330" y="135" />
            </Array>
          </mxGeometry>
        </mxCell>
        <mxCell id="dYEdAIXaL3cLcxX8QMDE-28" value="&lt;font style=&quot;font-size: 13px;&quot;&gt;&lt;b&gt;фильтры&lt;/b&gt;&lt;/font&gt;" style="text;strokeColor=none;align=center;fillColor=none;html=1;verticalAlign=middle;whiteSpace=wrap;rounded=0;fontFamily=Helvetica;fontSize=12;fontColor=default;labelBackgroundColor=none;" parent="1" vertex="1">
          <mxGeometry x="384" y="120" width="60" height="30" as="geometry" />
        </mxCell>
        <mxCell id="dYEdAIXaL3cLcxX8QMDE-29" value="&lt;b&gt;3. Поиск продуктов по названию ингридиента&lt;/b&gt;" style="text;strokeColor=none;align=center;fillColor=none;html=1;verticalAlign=middle;whiteSpace=wrap;rounded=0;" parent="1" vertex="1">
          <mxGeometry x="625" y="480" width="150" height="30" as="geometry" />
        </mxCell>
        <mxCell id="dYEdAIXaL3cLcxX8QMDE-30" value="&lt;b&gt;4. Поиск продуктов по названиям игридиентов из номенклатуры INCI&lt;/b&gt;" style="text;strokeColor=none;align=center;fillColor=none;html=1;verticalAlign=middle;whiteSpace=wrap;rounded=0;" parent="1" vertex="1">
          <mxGeometry x="875" y="480" width="170" height="40" as="geometry" />
        </mxCell>
        <mxCell id="dYEdAIXaL3cLcxX8QMDE-31" value="&lt;b&gt;6. Результат поиска средств для ухода за лицом с 3 фильтрами&lt;/b&gt;" style="text;strokeColor=none;align=center;fillColor=none;html=1;verticalAlign=middle;whiteSpace=wrap;rounded=0;" parent="1" vertex="1">
          <mxGeometry x="1160" y="485" width="175" height="30" as="geometry" />
        </mxCell>
        <mxCell id="dYEdAIXaL3cLcxX8QMDE-32" value="Переход на страницу с выбором фильтров для поиска" style="text;strokeColor=none;align=center;fillColor=none;html=1;verticalAlign=middle;whiteSpace=wrap;rounded=0;" parent="1" vertex="1">
          <mxGeometry x="47.5" y="52.5" width="125" height="30" as="geometry" />
        </mxCell>
        <mxCell id="dYEdAIXaL3cLcxX8QMDE-34" value="Возврат на страницу с выбором фильтров для поиска" style="text;strokeColor=none;align=center;fillColor=none;html=1;verticalAlign=middle;whiteSpace=wrap;rounded=0;" parent="1" vertex="1">
          <mxGeometry x="1185" y="52.5" width="125" height="30" as="geometry" />
        </mxCell>
        <mxCell id="wpBQhrVMxcvOTKbJPQ1--1" value="" style="rounded=1;whiteSpace=wrap;html=1;shadow=1;arcSize=13;labelBackgroundColor=none;movable=1;resizable=1;rotatable=1;deletable=1;editable=1;locked=0;connectable=1;" vertex="1" parent="1">
          <mxGeometry x="740" y="550" width="200" height="360" as="geometry" />
        </mxCell>
        <mxCell id="wpBQhrVMxcvOTKbJPQ1--2" value="" style="endArrow=none;html=1;rounded=0;entryX=0.995;entryY=0.833;entryDx=0;entryDy=0;entryPerimeter=0;labelBackgroundColor=none;fontColor=default;" edge="1" parent="1">
          <mxGeometry width="50" height="50" relative="1" as="geometry">
            <mxPoint x="742" y="890" as="sourcePoint" />
            <mxPoint x="940" y="890" as="targetPoint" />
          </mxGeometry>
        </mxCell>
        <mxCell id="wpBQhrVMxcvOTKbJPQ1--3" value="" style="endArrow=none;html=1;rounded=0;entryX=0.995;entryY=0.833;entryDx=0;entryDy=0;entryPerimeter=0;labelBackgroundColor=none;fontColor=default;" edge="1" parent="1">
          <mxGeometry width="50" height="50" relative="1" as="geometry">
            <mxPoint x="741" y="570" as="sourcePoint" />
            <mxPoint x="939" y="570" as="targetPoint" />
          </mxGeometry>
        </mxCell>
        <mxCell id="wpBQhrVMxcvOTKbJPQ1--4" value="&lt;font style=&quot;font-size: 13px;&quot;&gt;&lt;b&gt;ингридиент&lt;/b&gt;&lt;/font&gt;" style="text;strokeColor=none;align=center;fillColor=none;html=1;verticalAlign=middle;whiteSpace=wrap;rounded=0;fontFamily=Helvetica;fontSize=12;fontColor=default;labelBackgroundColor=none;" vertex="1" parent="1">
          <mxGeometry x="800" y="570" width="60" height="30" as="geometry" />
        </mxCell>
        <mxCell id="wpBQhrVMxcvOTKbJPQ1--5" value="" style="endArrow=none;html=1;rounded=0;fontFamily=Helvetica;fontSize=12;fontColor=default;labelBackgroundColor=none;" edge="1" parent="1">
          <mxGeometry width="50" height="50" relative="1" as="geometry">
            <mxPoint x="760" y="595" as="sourcePoint" />
            <mxPoint x="760" y="575" as="targetPoint" />
            <Array as="points">
              <mxPoint x="750" y="585" />
            </Array>
          </mxGeometry>
        </mxCell>
        <mxCell id="wpBQhrVMxcvOTKbJPQ1--6" value="&lt;font style=&quot;font-size: 10px;&quot;&gt;сбросить&lt;/font&gt;" style="text;strokeColor=none;align=center;fillColor=none;html=1;verticalAlign=middle;whiteSpace=wrap;rounded=0;" vertex="1" parent="1">
          <mxGeometry x="875" y="570" width="60" height="30" as="geometry" />
        </mxCell>
        <mxCell id="wpBQhrVMxcvOTKbJPQ1--7" value="" style="verticalLabelPosition=bottom;verticalAlign=top;html=1;shape=mxgraph.basic.patternFillRect;fillStyle=diag;step=5;fillStrokeWidth=0.2;fillStrokeColor=#dddddd;fillColor=#DEDEDE;" vertex="1" parent="1">
          <mxGeometry x="740" y="610" width="100" height="30" as="geometry" />
        </mxCell>
        <mxCell id="wpBQhrVMxcvOTKbJPQ1--9" value="&lt;b&gt;название&lt;/b&gt;" style="text;strokeColor=none;align=center;fillColor=none;html=1;verticalAlign=middle;whiteSpace=wrap;rounded=0;" vertex="1" parent="1">
          <mxGeometry x="760" y="610" width="60" height="30" as="geometry" />
        </mxCell>
        <mxCell id="wpBQhrVMxcvOTKbJPQ1--11" value="" style="verticalLabelPosition=bottom;verticalAlign=top;html=1;shape=mxgraph.basic.patternFillRect;fillStyle=diag;step=5;fillStrokeWidth=0.2;fillStrokeColor=#dddddd;" vertex="1" parent="1">
          <mxGeometry x="840" y="610" width="100" height="30" as="geometry" />
        </mxCell>
        <mxCell id="wpBQhrVMxcvOTKbJPQ1--10" value="INCI" style="text;strokeColor=none;align=center;fillColor=none;html=1;verticalAlign=middle;whiteSpace=wrap;rounded=0;" vertex="1" parent="1">
          <mxGeometry x="860" y="610" width="60" height="30" as="geometry" />
        </mxCell>
        <mxCell id="wpBQhrVMxcvOTKbJPQ1--13" value="" style="endArrow=none;html=1;rounded=0;entryX=0.995;entryY=0.833;entryDx=0;entryDy=0;entryPerimeter=0;labelBackgroundColor=none;fontColor=default;opacity=20;" edge="1" parent="1">
          <mxGeometry width="50" height="50" relative="1" as="geometry">
            <mxPoint x="740" y="680" as="sourcePoint" />
            <mxPoint x="938" y="680" as="targetPoint" />
            <Array as="points">
              <mxPoint x="838" y="680" />
            </Array>
          </mxGeometry>
        </mxCell>
        <mxCell id="wpBQhrVMxcvOTKbJPQ1--14" value="" style="ellipse;whiteSpace=wrap;html=1;aspect=fixed;rounded=1;shadow=1;strokeColor=default;align=center;verticalAlign=middle;arcSize=13;fontFamily=Helvetica;fontSize=12;fontColor=default;labelBackgroundColor=none;fillColor=default;strokeWidth=2;opacity=30;" vertex="1" parent="1">
          <mxGeometry x="915" y="660" width="10" height="10" as="geometry" />
        </mxCell>
        <mxCell id="wpBQhrVMxcvOTKbJPQ1--15" value="" style="endArrow=none;html=1;rounded=0;shadow=1;endSize=7;startSize=7;jumpSize=7;labelBackgroundColor=none;fontColor=default;fillColor=#60a917;strokeColor=#000000;opacity=40;" edge="1" parent="1">
          <mxGeometry width="50" height="50" relative="1" as="geometry">
            <mxPoint x="925" y="670" as="sourcePoint" />
            <mxPoint x="935" y="680" as="targetPoint" />
          </mxGeometry>
        </mxCell>
        <mxCell id="wpBQhrVMxcvOTKbJPQ1--17" value="&lt;span style=&quot;font-size: 14px;&quot;&gt;&lt;b&gt;Экстракт ромашки&lt;/b&gt;&lt;/span&gt;" style="text;strokeColor=none;align=center;fillColor=none;html=1;verticalAlign=middle;whiteSpace=wrap;rounded=0;fontFamily=Helvetica;fontSize=12;fontColor=default;labelBackgroundColor=none;" vertex="1" parent="1">
          <mxGeometry x="745" y="650" width="135" height="30" as="geometry" />
        </mxCell>
        <mxCell id="wpBQhrVMxcvOTKbJPQ1--18" value="" style="rounded=0;whiteSpace=wrap;html=1;strokeColor=#666666;fillColor=#f5f5f5;fontColor=#333333;" vertex="1" parent="1">
          <mxGeometry x="760" y="710" width="160" height="90" as="geometry" />
        </mxCell>
        <mxCell id="wpBQhrVMxcvOTKbJPQ1--19" value="Извините, ничего не найдено!&lt;div&gt;Попробуйте ввести другое название&lt;/div&gt;" style="text;strokeColor=none;align=center;fillColor=none;html=1;verticalAlign=middle;whiteSpace=wrap;rounded=0;" vertex="1" parent="1">
          <mxGeometry x="770" y="720" width="142" height="70" as="geometry" />
        </mxCell>
        <mxCell id="wpBQhrVMxcvOTKbJPQ1--21" style="edgeStyle=orthogonalEdgeStyle;rounded=0;orthogonalLoop=1;jettySize=auto;html=1;exitX=0.965;exitY=0.983;exitDx=0;exitDy=0;entryX=0.45;entryY=0.003;entryDx=0;entryDy=0;entryPerimeter=0;exitPerimeter=0;" edge="1" parent="1" source="ZdthaMtyNPpBsi2oZ3e5-73" target="wpBQhrVMxcvOTKbJPQ1--1">
          <mxGeometry relative="1" as="geometry" />
        </mxCell>
        <mxCell id="wpBQhrVMxcvOTKbJPQ1--22" value="&lt;b&gt;5. Обработка ошибки (ингридиент не найден)&lt;/b&gt;" style="text;strokeColor=none;align=center;fillColor=none;html=1;verticalAlign=middle;whiteSpace=wrap;rounded=0;" vertex="1" parent="1">
          <mxGeometry x="750" y="920" width="170" height="40" as="geometry" />
        </mxCell>
      </root>
    </mxGraphModel>
  </diagram>
</mxfile>
